<?xml version='1.0' encoding='UTF-8' standalone='no'?>
<svg xmlns="http://www.w3.org/2000/svg" viewBox="0 0 7021 4966" baseProfile="tiny" xmlns:inkscape="http://www.inkscape.org/namespaces/inkscape" xmlns:xlink="http://www.w3.org/1999/xlink" version="1.2" width="1188.89mm" height="840.909mm">
 <defs/>
 <g fill-rule="evenodd" stroke-linejoin="bevel" stroke-linecap="square" fill="none" id="Layer 1" inkscape:groupmode="layer" stroke="black" stroke-width="1" inkscape:label="Layer 1">
  <g font-size="18.75" font-style="normal" stroke-linejoin="bevel" font-weight="400" stroke-opacity="1" stroke-linecap="square" fill="none" stroke="#000000" stroke-width="1" transform="matrix(1,0,0,1,0,0)" font-family="Noto Sans"/>
  <g font-size="18.75" font-style="normal" stroke-linejoin="bevel" font-weight="400" stroke-opacity="1" stroke-linecap="square" fill="none" stroke="#000000" stroke-width="1" transform="matrix(1,0,0,1,0,0)" font-family="Noto Sans"/>
  <g font-size="18.75" font-style="normal" stroke-linejoin="bevel" font-weight="400" stroke-opacity="1" stroke-linecap="square" fill="none" stroke="#000000" stroke-width="1" transform="matrix(5.90488,0,0,5.90488,0,0)" font-family="Noto Sans"/>
  <g font-size="18.75" font-style="normal" stroke-linejoin="bevel" font-weight="400" stroke-opacity="1" stroke-linecap="square" fill="none" stroke="#000000" stroke-width="1" transform="matrix(0.999892,0,0,0.999892,0,0)" font-family="Noto Sans"/>
  <g font-size="18.75" fill-opacity="1" font-style="normal" font-weight="400" fill="#ffffff" stroke="none" transform="matrix(0.999892,0,0,0.999892,0,0)" font-family="Noto Sans">
   <path fill-rule="evenodd" vector-effect="none" d="M-2,-2 L7024,-2 L7024,4969 L-2,4969 L-2,-2"/>
  </g>
  <g font-size="18.75" font-style="normal" stroke-linejoin="bevel" font-weight="400" stroke-opacity="1" stroke-linecap="square" fill="none" stroke="#000000" stroke-width="1" transform="matrix(0.999892,0,0,0.999892,0,0)" font-family="Noto Sans"/>
  <g font-size="18.75" font-style="normal" stroke-linejoin="bevel" font-weight="400" stroke-opacity="1" stroke-linecap="square" fill="none" stroke="#000000" stroke-width="1" transform="matrix(5.90488,0,0,5.90488,0,0)" font-family="Noto Sans"/>
  <g font-size="18.75" font-style="normal" stroke-linejoin="bevel" font-weight="400" stroke-opacity="1" stroke-linecap="square" fill="none" stroke="#000000" stroke-width="1" transform="matrix(5.90488,0,0,5.90488,0,0)" font-family="Noto Sans"/>
  <g font-size="18.75" font-style="normal" stroke-linejoin="bevel" font-weight="400" stroke-opacity="1" stroke-linecap="square" fill="none" stroke="#000000" stroke-width="1" transform="matrix(5.90488,0,0,5.90488,553.601,4790.31)" font-family="Noto Sans"/>
  <g font-size="18.75" font-style="normal" stroke-linejoin="bevel" font-weight="400" stroke-opacity="1" stroke-linecap="square" fill="none" stroke="#000000" stroke-width="1" transform="matrix(0.999892,0,0,0.999892,553.601,4790.31)" font-family="Noto Sans"/>
  <g font-size="18.75" fill-opacity="1" font-style="normal" stroke-linejoin="miter" font-weight="400" stroke-opacity="1" stroke-linecap="square" stroke-miterlimit="2" fill="#40666f" stroke="#406770" stroke-width="1.77165" transform="matrix(0.999892,0,0,0.999892,553.601,4790.31)" font-family="Noto Sans">
   <rect x="14.8178" y="50.622" width="113.126" height="29.5276"/>
  </g>
  <g font-size="18.75" fill-opacity="1" font-style="normal" stroke-linejoin="miter" font-weight="400" stroke-opacity="1" stroke-linecap="square" stroke-miterlimit="2" fill="#ffffff" stroke="#406770" stroke-width="1.77165" transform="matrix(0.999892,0,0,0.999892,553.601,4790.31)" font-family="Noto Sans">
   <rect x="127.943" y="50.622" width="113.126" height="29.5276"/>
  </g>
  <g font-size="18.75" fill-opacity="1" font-style="normal" stroke-linejoin="miter" font-weight="400" stroke-opacity="1" stroke-linecap="square" stroke-miterlimit="2" fill="#40666f" stroke="#406770" stroke-width="1.77165" transform="matrix(0.999892,0,0,0.999892,553.601,4790.31)" font-family="Noto Sans">
   <rect x="241.069" y="50.622" width="113.126" height="29.5276"/>
  </g>
  <g font-size="18.75" fill-opacity="1" font-style="normal" stroke-linejoin="miter" font-weight="400" stroke-opacity="1" stroke-linecap="square" stroke-miterlimit="2" fill="#ffffff" stroke="#406770" stroke-width="1.77165" transform="matrix(0.999892,0,0,0.999892,553.601,4790.31)" font-family="Noto Sans">
   <rect x="354.194" y="50.622" width="113.126" height="29.5276"/>
  </g>
  <g font-size="18.75" fill-opacity="1" font-style="normal" stroke-linejoin="miter" font-weight="400" stroke-opacity="1" stroke-linecap="square" stroke-miterlimit="2" fill="#40666f" stroke="#406770" stroke-width="1.77165" transform="matrix(0.999892,0,0,0.999892,553.601,4790.31)" font-family="Noto Sans">
   <rect x="467.32" y="50.622" width="113.126" height="29.5276"/>
  </g>
  <g font-size="18.75" font-style="normal" stroke-linejoin="bevel" font-weight="400" stroke-opacity="1" stroke-linecap="square" fill="none" stroke="#000000" stroke-width="1" transform="matrix(0.999892,0,0,0.999892,553.601,4790.31)" font-family="Noto Sans"/>
  <g font-size="18.75" font-style="normal" stroke-linejoin="bevel" font-weight="400" stroke-opacity="1" stroke-linecap="square" fill="none" stroke="#000000" stroke-width="1" transform="matrix(0.799914,0,0,0.799914,561.277,4823.21)" font-family="Noto Sans"/>
  <g font-size="18.75" fill-opacity="1" font-style="normal" font-weight="400" fill="#406770" stroke="none" transform="matrix(0.999892,0,0,0.999892,561.277,4823.21)" font-family="Noto Sans">
   <path fill-rule="nonzero" vector-effect="none" d="M13.0781,-8.95312 C13.0781,-5.84896 12.5859,-3.53906 11.6016,-2.02344 C10.6172,-0.507812 9.125,0.25 7.125,0.25 C5.1875,0.25 3.71875,-0.53125 2.71875,-2.09375 C1.71875,-3.65625 1.21875,-5.94271 1.21875,-8.95312 C1.21875,-12.0573 1.70052,-14.362 2.66406,-15.8672 C3.6276,-17.3724 5.11458,-18.125 7.125,-18.125 C9.0625,-18.125 10.5391,-17.3438 11.5547,-15.7812 C12.5703,-14.2188 13.0781,-11.9427 13.0781,-8.95312 M3.4375,-8.95312 C3.4375,-6.35938 3.73177,-4.48958 4.32031,-3.34375 C4.90885,-2.19792 5.84375,-1.625 7.125,-1.625 C8.42708,-1.625 9.375,-2.21354 9.96875,-3.39062 C10.5625,-4.56771 10.8594,-6.42188 10.8594,-8.95312 C10.8594,-11.4531 10.5625,-13.2943 9.96875,-14.4766 C9.375,-15.6589 8.42708,-16.25 7.125,-16.25 C5.82292,-16.25 4.88281,-15.6719 4.30469,-14.5156 C3.72656,-13.3594 3.4375,-11.5052 3.4375,-8.95312 "/>
  </g>
  <g font-size="18.75" font-style="normal" stroke-linejoin="bevel" font-weight="400" stroke-opacity="1" stroke-linecap="square" fill="none" stroke="#000000" stroke-width="1" transform="matrix(0.799914,0,0,0.799914,561.277,4823.21)" font-family="Noto Sans"/>
  <g font-size="18.75" font-style="normal" stroke-linejoin="bevel" font-weight="400" stroke-opacity="1" stroke-linecap="square" fill="none" stroke="#000000" stroke-width="1" transform="matrix(0.999892,0,0,0.999892,553.601,4790.31)" font-family="Noto Sans"/>
  <g font-size="18.75" font-style="normal" stroke-linejoin="bevel" font-weight="400" stroke-opacity="1" stroke-linecap="square" fill="none" stroke="#000000" stroke-width="1" transform="matrix(0.799914,0,0,0.799914,660.111,4823.21)" font-family="Noto Sans"/>
  <g font-size="18.75" fill-opacity="1" font-style="normal" font-weight="400" fill="#406770" stroke="none" transform="matrix(0.999892,0,0,0.999892,660.111,4823.21)" font-family="Noto Sans">
   <path fill-rule="nonzero" vector-effect="none" d="M8.875,0 L6.71875,0 L6.71875,-12.4688 C6.71875,-13.5833 6.75521,-14.6094 6.82812,-15.5469 C6.59896,-15.3073 6.35417,-15.0833 6.09375,-14.875 C5.26042,-14.1771 4.35417,-13.4271 3.375,-12.625 L2.21875,-14.0938 L7.0625,-17.8438 L8.875,-17.8438 L8.875,0 M27.3594,-8.95312 C27.3594,-5.84896 26.8672,-3.53906 25.8828,-2.02344 C24.8984,-0.507812 23.4062,0.25 21.4062,0.25 C19.4688,0.25 18,-0.53125 17,-2.09375 C16,-3.65625 15.5,-5.94271 15.5,-8.95312 C15.5,-12.0573 15.9818,-14.362 16.9453,-15.8672 C17.9089,-17.3724 19.3958,-18.125 21.4062,-18.125 C23.3438,-18.125 24.8203,-17.3438 25.8359,-15.7812 C26.8516,-14.2188 27.3594,-11.9427 27.3594,-8.95312 M17.7188,-8.95312 C17.7188,-6.35938 18.013,-4.48958 18.6016,-3.34375 C19.1901,-2.19792 20.125,-1.625 21.4062,-1.625 C22.7083,-1.625 23.6562,-2.21354 24.25,-3.39062 C24.8438,-4.56771 25.1406,-6.42188 25.1406,-8.95312 C25.1406,-11.4531 24.8438,-13.2943 24.25,-14.4766 C23.6562,-15.6589 22.7083,-16.25 21.4062,-16.25 C20.1042,-16.25 19.1641,-15.6719 18.5859,-14.5156 C18.0078,-13.3594 17.7188,-11.5052 17.7188,-8.95312 M41.6406,-8.95312 C41.6406,-5.84896 41.1484,-3.53906 40.1641,-2.02344 C39.1797,-0.507812 37.6875,0.25 35.6875,0.25 C33.75,0.25 32.2812,-0.53125 31.2812,-2.09375 C30.2812,-3.65625 29.7812,-5.94271 29.7812,-8.95312 C29.7812,-12.0573 30.263,-14.362 31.2266,-15.8672 C32.1901,-17.3724 33.6771,-18.125 35.6875,-18.125 C37.625,-18.125 39.1016,-17.3438 40.1172,-15.7812 C41.1328,-14.2188 41.6406,-11.9427 41.6406,-8.95312 M32,-8.95312 C32,-6.35938 32.2943,-4.48958 32.8828,-3.34375 C33.4714,-2.19792 34.4062,-1.625 35.6875,-1.625 C36.9896,-1.625 37.9375,-2.21354 38.5312,-3.39062 C39.125,-4.56771 39.4219,-6.42188 39.4219,-8.95312 C39.4219,-11.4531 39.125,-13.2943 38.5312,-14.4766 C37.9375,-15.6589 36.9896,-16.25 35.6875,-16.25 C34.3854,-16.25 33.4453,-15.6719 32.8672,-14.5156 C32.2891,-13.3594 32,-11.5052 32,-8.95312 "/>
  </g>
  <g font-size="18.75" font-style="normal" stroke-linejoin="bevel" font-weight="400" stroke-opacity="1" stroke-linecap="square" fill="none" stroke="#000000" stroke-width="1" transform="matrix(0.799914,0,0,0.799914,660.111,4823.21)" font-family="Noto Sans"/>
  <g font-size="18.75" font-style="normal" stroke-linejoin="bevel" font-weight="400" stroke-opacity="1" stroke-linecap="square" fill="none" stroke="#000000" stroke-width="1" transform="matrix(0.999892,0,0,0.999892,553.601,4790.31)" font-family="Noto Sans"/>
  <g font-size="18.75" font-style="normal" stroke-linejoin="bevel" font-weight="400" stroke-opacity="1" stroke-linecap="square" fill="none" stroke="#000000" stroke-width="1" transform="matrix(0.799914,0,0,0.799914,773.224,4823.21)" font-family="Noto Sans"/>
  <g font-size="18.75" fill-opacity="1" font-style="normal" font-weight="400" fill="#406770" stroke="none" transform="matrix(0.999892,0,0,0.999892,773.224,4823.21)" font-family="Noto Sans">
   <path fill-rule="nonzero" vector-effect="none" d="M13,0 L1.20312,0 L1.20312,-1.82812 L5.875,-6.5625 C7.28125,-7.97917 8.21094,-8.99219 8.66406,-9.60156 C9.11719,-10.2109 9.45573,-10.8021 9.67969,-11.375 C9.90365,-11.9479 10.0156,-12.5625 10.0156,-13.2188 C10.0156,-14.1667 9.73698,-14.9036 9.17969,-15.4297 C8.6224,-15.9557 7.85417,-16.2188 6.875,-16.2188 C6.14583,-16.2188 5.45312,-16.0964 4.79688,-15.8516 C4.14062,-15.6068 3.40104,-15.1667 2.57812,-14.5312 L1.40625,-16 C3.07292,-17.4062 4.89583,-18.1094 6.875,-18.1094 C8.53125,-18.1094 9.84635,-17.6823 10.8203,-16.8281 C11.7943,-15.974 12.2812,-14.8177 12.2812,-13.3594 C12.2812,-12.5781 12.138,-11.8229 11.8516,-11.0938 C11.5651,-10.3646 11.138,-9.6224 10.5703,-8.86719 C10.0026,-8.11198 9.04688,-7.08333 7.70312,-5.78125 L3.98438,-2.09375 L3.98438,-2 L13,-2 L13,0 M27.3594,-8.95312 C27.3594,-5.84896 26.8672,-3.53906 25.8828,-2.02344 C24.8984,-0.507812 23.4062,0.25 21.4062,0.25 C19.4688,0.25 18,-0.53125 17,-2.09375 C16,-3.65625 15.5,-5.94271 15.5,-8.95312 C15.5,-12.0573 15.9818,-14.362 16.9453,-15.8672 C17.9089,-17.3724 19.3958,-18.125 21.4062,-18.125 C23.3438,-18.125 24.8203,-17.3438 25.8359,-15.7812 C26.8516,-14.2188 27.3594,-11.9427 27.3594,-8.95312 M17.7188,-8.95312 C17.7188,-6.35938 18.013,-4.48958 18.6016,-3.34375 C19.1901,-2.19792 20.125,-1.625 21.4062,-1.625 C22.7083,-1.625 23.6562,-2.21354 24.25,-3.39062 C24.8438,-4.56771 25.1406,-6.42188 25.1406,-8.95312 C25.1406,-11.4531 24.8438,-13.2943 24.25,-14.4766 C23.6562,-15.6589 22.7083,-16.25 21.4062,-16.25 C20.1042,-16.25 19.1641,-15.6719 18.5859,-14.5156 C18.0078,-13.3594 17.7188,-11.5052 17.7188,-8.95312 M41.6406,-8.95312 C41.6406,-5.84896 41.1484,-3.53906 40.1641,-2.02344 C39.1797,-0.507812 37.6875,0.25 35.6875,0.25 C33.75,0.25 32.2812,-0.53125 31.2812,-2.09375 C30.2812,-3.65625 29.7812,-5.94271 29.7812,-8.95312 C29.7812,-12.0573 30.263,-14.362 31.2266,-15.8672 C32.1901,-17.3724 33.6771,-18.125 35.6875,-18.125 C37.625,-18.125 39.1016,-17.3438 40.1172,-15.7812 C41.1328,-14.2188 41.6406,-11.9427 41.6406,-8.95312 M32,-8.95312 C32,-6.35938 32.2943,-4.48958 32.8828,-3.34375 C33.4714,-2.19792 34.4062,-1.625 35.6875,-1.625 C36.9896,-1.625 37.9375,-2.21354 38.5312,-3.39062 C39.125,-4.56771 39.4219,-6.42188 39.4219,-8.95312 C39.4219,-11.4531 39.125,-13.2943 38.5312,-14.4766 C37.9375,-15.6589 36.9896,-16.25 35.6875,-16.25 C34.3854,-16.25 33.4453,-15.6719 32.8672,-14.5156 C32.2891,-13.3594 32,-11.5052 32,-8.95312 "/>
  </g>
  <g font-size="18.75" font-style="normal" stroke-linejoin="bevel" font-weight="400" stroke-opacity="1" stroke-linecap="square" fill="none" stroke="#000000" stroke-width="1" transform="matrix(0.799914,0,0,0.799914,773.224,4823.21)" font-family="Noto Sans"/>
  <g font-size="18.75" font-style="normal" stroke-linejoin="bevel" font-weight="400" stroke-opacity="1" stroke-linecap="square" fill="none" stroke="#000000" stroke-width="1" transform="matrix(0.999892,0,0,0.999892,553.601,4790.31)" font-family="Noto Sans"/>
  <g font-size="18.75" font-style="normal" stroke-linejoin="bevel" font-weight="400" stroke-opacity="1" stroke-linecap="square" fill="none" stroke="#000000" stroke-width="1" transform="matrix(0.799914,0,0,0.799914,886.338,4823.21)" font-family="Noto Sans"/>
  <g font-size="18.75" fill-opacity="1" font-style="normal" font-weight="400" fill="#406770" stroke="none" transform="matrix(0.999892,0,0,0.999892,886.338,4823.21)" font-family="Noto Sans">
   <path fill-rule="nonzero" vector-effect="none" d="M12.3281,-13.6719 C12.3281,-12.5365 12.0078,-11.6016 11.3672,-10.8672 C10.7266,-10.1328 9.8125,-9.64583 8.625,-9.40625 L8.625,-9.29688 C10.0521,-9.11979 11.1172,-8.66667 11.8203,-7.9375 C12.5234,-7.20833 12.875,-6.25521 12.875,-5.07812 C12.875,-3.38021 12.2865,-2.06771 11.1094,-1.14062 C9.93229,-0.213542 8.23958,0.25 6.03125,0.25 C5.08333,0.25 4.21354,0.179688 3.42188,0.0390625 C2.63021,-0.101562 1.86458,-0.354167 1.125,-0.71875 L1.125,-2.76562 C1.88542,-2.39062 2.69531,-2.10156 3.55469,-1.89844 C4.41406,-1.69531 5.25,-1.59375 6.0625,-1.59375 C9.07292,-1.59375 10.5781,-2.77083 10.5781,-5.125 C10.5781,-7.22917 8.91146,-8.28125 5.57812,-8.28125 L3.84375,-8.28125 L3.84375,-10.1406 L5.60938,-10.1406 C7.00521,-10.1406 8.09896,-10.4401 8.89062,-11.0391 C9.68229,-11.638 10.0781,-12.4688 10.0781,-13.5312 C10.0781,-14.3854 9.78906,-15.0521 9.21094,-15.5312 C8.63281,-16.0104 7.83854,-16.25 6.82812,-16.25 C6.03646,-16.25 5.30469,-16.1406 4.63281,-15.9219 C3.96094,-15.7031 3.1875,-15.3125 2.3125,-14.75 L1.21875,-16.25 C1.94792,-16.8229 2.79167,-17.276 3.75,-17.6094 C4.70833,-17.9427 5.72396,-18.1094 6.79688,-18.1094 C8.53646,-18.1094 9.89323,-17.7109 10.8672,-16.9141 C11.8411,-16.1172 12.3281,-15.0365 12.3281,-13.6719 M27.3594,-8.95312 C27.3594,-5.84896 26.8672,-3.53906 25.8828,-2.02344 C24.8984,-0.507812 23.4062,0.25 21.4062,0.25 C19.4688,0.25 18,-0.53125 17,-2.09375 C16,-3.65625 15.5,-5.94271 15.5,-8.95312 C15.5,-12.0573 15.9818,-14.362 16.9453,-15.8672 C17.9089,-17.3724 19.3958,-18.125 21.4062,-18.125 C23.3438,-18.125 24.8203,-17.3438 25.8359,-15.7812 C26.8516,-14.2188 27.3594,-11.9427 27.3594,-8.95312 M17.7188,-8.95312 C17.7188,-6.35938 18.013,-4.48958 18.6016,-3.34375 C19.1901,-2.19792 20.125,-1.625 21.4062,-1.625 C22.7083,-1.625 23.6562,-2.21354 24.25,-3.39062 C24.8438,-4.56771 25.1406,-6.42188 25.1406,-8.95312 C25.1406,-11.4531 24.8438,-13.2943 24.25,-14.4766 C23.6562,-15.6589 22.7083,-16.25 21.4062,-16.25 C20.1042,-16.25 19.1641,-15.6719 18.5859,-14.5156 C18.0078,-13.3594 17.7188,-11.5052 17.7188,-8.95312 M41.6406,-8.95312 C41.6406,-5.84896 41.1484,-3.53906 40.1641,-2.02344 C39.1797,-0.507812 37.6875,0.25 35.6875,0.25 C33.75,0.25 32.2812,-0.53125 31.2812,-2.09375 C30.2812,-3.65625 29.7812,-5.94271 29.7812,-8.95312 C29.7812,-12.0573 30.263,-14.362 31.2266,-15.8672 C32.1901,-17.3724 33.6771,-18.125 35.6875,-18.125 C37.625,-18.125 39.1016,-17.3438 40.1172,-15.7812 C41.1328,-14.2188 41.6406,-11.9427 41.6406,-8.95312 M32,-8.95312 C32,-6.35938 32.2943,-4.48958 32.8828,-3.34375 C33.4714,-2.19792 34.4062,-1.625 35.6875,-1.625 C36.9896,-1.625 37.9375,-2.21354 38.5312,-3.39062 C39.125,-4.56771 39.4219,-6.42188 39.4219,-8.95312 C39.4219,-11.4531 39.125,-13.2943 38.5312,-14.4766 C37.9375,-15.6589 36.9896,-16.25 35.6875,-16.25 C34.3854,-16.25 33.4453,-15.6719 32.8672,-14.5156 C32.2891,-13.3594 32,-11.5052 32,-8.95312 "/>
  </g>
  <g font-size="18.75" font-style="normal" stroke-linejoin="bevel" font-weight="400" stroke-opacity="1" stroke-linecap="square" fill="none" stroke="#000000" stroke-width="1" transform="matrix(0.799914,0,0,0.799914,886.338,4823.21)" font-family="Noto Sans"/>
  <g font-size="18.75" font-style="normal" stroke-linejoin="bevel" font-weight="400" stroke-opacity="1" stroke-linecap="square" fill="none" stroke="#000000" stroke-width="1" transform="matrix(0.999892,0,0,0.999892,553.601,4790.31)" font-family="Noto Sans"/>
  <g font-size="18.75" font-style="normal" stroke-linejoin="bevel" font-weight="400" stroke-opacity="1" stroke-linecap="square" fill="none" stroke="#000000" stroke-width="1" transform="matrix(0.799914,0,0,0.799914,999.451,4823.21)" font-family="Noto Sans"/>
  <g font-size="18.75" fill-opacity="1" font-style="normal" font-weight="400" fill="#406770" stroke="none" transform="matrix(0.999892,0,0,0.999892,999.451,4823.21)" font-family="Noto Sans">
   <path fill-rule="nonzero" vector-effect="none" d="M13.7969,-4.04688 L11.2031,-4.04688 L11.2031,0 L9.0625,0 L9.0625,-4.04688 L0.53125,-4.04688 L0.53125,-5.92188 L8.92188,-17.9375 L11.2031,-17.9375 L11.2031,-6.03125 L13.7969,-6.03125 L13.7969,-4.04688 M9.0625,-6.03125 L9.0625,-11.6406 C9.0625,-12.7552 9.10938,-14.0729 9.20312,-15.5938 L9.09375,-15.5938 C9,-15.3854 8.84115,-15.0703 8.61719,-14.6484 C8.39323,-14.2266 8.19271,-13.8906 8.01562,-13.6406 L2.67188,-6.03125 L9.0625,-6.03125 M27.3594,-8.95312 C27.3594,-5.84896 26.8672,-3.53906 25.8828,-2.02344 C24.8984,-0.507812 23.4062,0.25 21.4062,0.25 C19.4688,0.25 18,-0.53125 17,-2.09375 C16,-3.65625 15.5,-5.94271 15.5,-8.95312 C15.5,-12.0573 15.9818,-14.362 16.9453,-15.8672 C17.9089,-17.3724 19.3958,-18.125 21.4062,-18.125 C23.3438,-18.125 24.8203,-17.3438 25.8359,-15.7812 C26.8516,-14.2188 27.3594,-11.9427 27.3594,-8.95312 M17.7188,-8.95312 C17.7188,-6.35938 18.013,-4.48958 18.6016,-3.34375 C19.1901,-2.19792 20.125,-1.625 21.4062,-1.625 C22.7083,-1.625 23.6562,-2.21354 24.25,-3.39062 C24.8438,-4.56771 25.1406,-6.42188 25.1406,-8.95312 C25.1406,-11.4531 24.8438,-13.2943 24.25,-14.4766 C23.6562,-15.6589 22.7083,-16.25 21.4062,-16.25 C20.1042,-16.25 19.1641,-15.6719 18.5859,-14.5156 C18.0078,-13.3594 17.7188,-11.5052 17.7188,-8.95312 M41.6406,-8.95312 C41.6406,-5.84896 41.1484,-3.53906 40.1641,-2.02344 C39.1797,-0.507812 37.6875,0.25 35.6875,0.25 C33.75,0.25 32.2812,-0.53125 31.2812,-2.09375 C30.2812,-3.65625 29.7812,-5.94271 29.7812,-8.95312 C29.7812,-12.0573 30.263,-14.362 31.2266,-15.8672 C32.1901,-17.3724 33.6771,-18.125 35.6875,-18.125 C37.625,-18.125 39.1016,-17.3438 40.1172,-15.7812 C41.1328,-14.2188 41.6406,-11.9427 41.6406,-8.95312 M32,-8.95312 C32,-6.35938 32.2943,-4.48958 32.8828,-3.34375 C33.4714,-2.19792 34.4062,-1.625 35.6875,-1.625 C36.9896,-1.625 37.9375,-2.21354 38.5312,-3.39062 C39.125,-4.56771 39.4219,-6.42188 39.4219,-8.95312 C39.4219,-11.4531 39.125,-13.2943 38.5312,-14.4766 C37.9375,-15.6589 36.9896,-16.25 35.6875,-16.25 C34.3854,-16.25 33.4453,-15.6719 32.8672,-14.5156 C32.2891,-13.3594 32,-11.5052 32,-8.95312 "/>
  </g>
  <g font-size="18.75" font-style="normal" stroke-linejoin="bevel" font-weight="400" stroke-opacity="1" stroke-linecap="square" fill="none" stroke="#000000" stroke-width="1" transform="matrix(0.799914,0,0,0.799914,999.451,4823.21)" font-family="Noto Sans"/>
  <g font-size="18.75" font-style="normal" stroke-linejoin="bevel" font-weight="400" stroke-opacity="1" stroke-linecap="square" fill="none" stroke="#000000" stroke-width="1" transform="matrix(0.999892,0,0,0.999892,553.601,4790.31)" font-family="Noto Sans"/>
  <g font-size="18.75" font-style="normal" stroke-linejoin="bevel" font-weight="400" stroke-opacity="1" stroke-linecap="square" fill="none" stroke="#000000" stroke-width="1" transform="matrix(0.799914,0,0,0.799914,1112.56,4823.21)" font-family="Noto Sans"/>
  <g font-size="18.75" fill-opacity="1" font-style="normal" font-weight="400" fill="#406770" stroke="none" transform="matrix(0.999892,0,0,0.999892,1112.56,4823.21)" font-family="Noto Sans">
   <path fill-rule="nonzero" vector-effect="none" d="M6.875,-10.9531 C8.73958,-10.9531 10.2057,-10.4844 11.2734,-9.54688 C12.3411,-8.60938 12.875,-7.32812 12.875,-5.70312 C12.875,-3.84896 12.2865,-2.39323 11.1094,-1.33594 C9.93229,-0.278646 8.29688,0.25 6.20312,0.25 C4.20312,0.25 2.66146,-0.0729167 1.57812,-0.71875 L1.57812,-2.79688 C2.18229,-2.44271 2.90625,-2.15885 3.75,-1.94531 C4.59375,-1.73177 5.41667,-1.625 6.21875,-1.625 C7.625,-1.625 8.71094,-1.95833 9.47656,-2.625 C10.2422,-3.29167 10.625,-4.24479 10.625,-5.48438 C10.625,-7.89062 9.13542,-9.09375 6.15625,-9.09375 C5.19792,-9.09375 4.17708,-8.97396 3.09375,-8.73438 L2,-9.42188 L2.67188,-17.8438 L11.625,-17.8438 L11.625,-15.8438 L4.54688,-15.8438 L4.125,-10.6719 C5.0625,-10.8594 5.97917,-10.9531 6.875,-10.9531 M27.3594,-8.95312 C27.3594,-5.84896 26.8672,-3.53906 25.8828,-2.02344 C24.8984,-0.507812 23.4062,0.25 21.4062,0.25 C19.4688,0.25 18,-0.53125 17,-2.09375 C16,-3.65625 15.5,-5.94271 15.5,-8.95312 C15.5,-12.0573 15.9818,-14.362 16.9453,-15.8672 C17.9089,-17.3724 19.3958,-18.125 21.4062,-18.125 C23.3438,-18.125 24.8203,-17.3438 25.8359,-15.7812 C26.8516,-14.2188 27.3594,-11.9427 27.3594,-8.95312 M17.7188,-8.95312 C17.7188,-6.35938 18.013,-4.48958 18.6016,-3.34375 C19.1901,-2.19792 20.125,-1.625 21.4062,-1.625 C22.7083,-1.625 23.6562,-2.21354 24.25,-3.39062 C24.8438,-4.56771 25.1406,-6.42188 25.1406,-8.95312 C25.1406,-11.4531 24.8438,-13.2943 24.25,-14.4766 C23.6562,-15.6589 22.7083,-16.25 21.4062,-16.25 C20.1042,-16.25 19.1641,-15.6719 18.5859,-14.5156 C18.0078,-13.3594 17.7188,-11.5052 17.7188,-8.95312 M41.6406,-8.95312 C41.6406,-5.84896 41.1484,-3.53906 40.1641,-2.02344 C39.1797,-0.507812 37.6875,0.25 35.6875,0.25 C33.75,0.25 32.2812,-0.53125 31.2812,-2.09375 C30.2812,-3.65625 29.7812,-5.94271 29.7812,-8.95312 C29.7812,-12.0573 30.263,-14.362 31.2266,-15.8672 C32.1901,-17.3724 33.6771,-18.125 35.6875,-18.125 C37.625,-18.125 39.1016,-17.3438 40.1172,-15.7812 C41.1328,-14.2188 41.6406,-11.9427 41.6406,-8.95312 M32,-8.95312 C32,-6.35938 32.2943,-4.48958 32.8828,-3.34375 C33.4714,-2.19792 34.4062,-1.625 35.6875,-1.625 C36.9896,-1.625 37.9375,-2.21354 38.5312,-3.39062 C39.125,-4.56771 39.4219,-6.42188 39.4219,-8.95312 C39.4219,-11.4531 39.125,-13.2943 38.5312,-14.4766 C37.9375,-15.6589 36.9896,-16.25 35.6875,-16.25 C34.3854,-16.25 33.4453,-15.6719 32.8672,-14.5156 C32.2891,-13.3594 32,-11.5052 32,-8.95312 M53.625,-6.89062 L54.375,-7.84375 L55.2188,-8.875 L59.5156,-13.4062 L62.0781,-13.4062 L56.6562,-7.67188 L62.4531,0 L59.7969,0 L55.1562,-6.25 L53.625,-4.92188 L53.625,0 L51.4531,0 L51.4531,-19 L53.625,-19 L53.625,-9.0625 L53.5312,-6.89062 L53.625,-6.89062 M81.8438,0 L81.8438,-8.625 C81.8438,-10.7396 80.9375,-11.7969 79.125,-11.7969 C77.8854,-11.7969 76.9714,-11.4349 76.3828,-10.7109 C75.7943,-9.98698 75.5,-8.88021 75.5,-7.39062 L75.5,0 L73.3125,0 L73.3125,-8.625 C73.3125,-9.6875 73.0911,-10.4818 72.6484,-11.0078 C72.2057,-11.5339 71.5104,-11.7969 70.5625,-11.7969 C69.3333,-11.7969 68.4323,-11.4193 67.8594,-10.6641 C67.2865,-9.90885 67,-8.67188 67,-6.95312 L67,0 L64.7969,0 L64.7969,-13.4062 L66.5625,-13.4062 L66.8906,-11.5781 L67.0156,-11.5781 C67.401,-12.224 67.9401,-12.7292 68.6328,-13.0938 C69.3255,-13.4583 70.1042,-13.6406 70.9688,-13.6406 C73.0729,-13.6406 74.4427,-12.8958 75.0781,-11.4062 L75.2031,-11.4062 C75.6302,-12.1146 76.2161,-12.6641 76.9609,-13.0547 C77.7057,-13.4453 78.5521,-13.6406 79.5,-13.6406 C81.0104,-13.6406 82.1406,-13.25 82.8906,-12.4688 C83.6406,-11.6875 84.0156,-10.4427 84.0156,-8.73438 L84.0156,0 L81.8438,0"/>
  </g>
  <g font-size="18.75" font-style="normal" stroke-linejoin="bevel" font-weight="400" stroke-opacity="1" stroke-linecap="square" fill="none" stroke="#000000" stroke-width="1" transform="matrix(0.799914,0,0,0.799914,1112.56,4823.21)" font-family="Noto Sans"/>
  <g font-size="18.75" font-style="normal" stroke-linejoin="bevel" font-weight="400" stroke-opacity="1" stroke-linecap="square" fill="none" stroke="#000000" stroke-width="1" transform="matrix(0.999892,0,0,0.999892,553.601,4790.31)" font-family="Noto Sans"/>
  <g font-size="18.75" font-style="normal" stroke-linejoin="bevel" font-weight="400" stroke-opacity="1" stroke-linecap="square" fill="none" stroke="#000000" stroke-width="1" transform="matrix(0.999892,0,0,0.999892,553.601,4790.31)" font-family="Noto Sans"/>
  <g font-size="18.75" font-style="normal" stroke-linejoin="bevel" font-weight="400" stroke-opacity="1" stroke-linecap="square" fill="none" stroke="#000000" stroke-width="1" transform="matrix(5.90488,0,0,5.90488,553.601,4790.31)" font-family="Noto Sans"/>
  <g font-size="18.75" font-style="normal" stroke-linejoin="bevel" font-weight="400" stroke-opacity="1" stroke-linecap="square" fill="none" stroke="#000000" stroke-width="1" transform="matrix(5.90488,0,0,5.90488,553.601,4790.31)" font-family="Noto Sans"/>
  <g font-size="18.75" font-style="normal" stroke-linejoin="bevel" font-weight="400" stroke-opacity="1" stroke-linecap="square" fill="none" stroke="#000000" stroke-width="1" transform="matrix(5.90488,0,0,5.90488,823.683,1598.19)" font-family="Noto Sans"/>
  <g font-size="18.75" font-style="normal" stroke-linejoin="bevel" font-weight="400" stroke-opacity="1" stroke-linecap="square" fill="none" stroke="#000000" stroke-width="1" transform="matrix(5.90488,0,0,5.90488,823.683,1598.19)" font-family="Noto Sans"/>
  <g font-size="18.75" fill-opacity="1" font-style="normal" font-weight="400" fill="#ffffff" stroke="none" transform="matrix(5.90488,0,0,5.90488,823.683,1598.19)" font-family="Noto Sans">
   <rect x="0" y="0" width="53.6328" height="44.5"/>
  </g>
  <g font-size="18.75" font-style="normal" stroke-linejoin="bevel" font-weight="400" stroke-opacity="1" stroke-linecap="square" fill="none" stroke="#000000" stroke-width="1" transform="matrix(5.90488,0,0,5.90488,823.683,1598.19)" font-family="Noto Sans"/>
  <g font-size="18.75" font-style="normal" stroke-linejoin="bevel" font-weight="400" stroke-opacity="1" stroke-linecap="square" fill="none" stroke="#000000" stroke-width="1" transform="matrix(0.999892,0,0,0.999892,823.683,1598.19)" font-family="Noto Sans"/>
  <g font-size="18.75" font-style="normal" stroke-linejoin="bevel" font-weight="400" stroke-opacity="1" stroke-linecap="square" fill="none" stroke="#000000" stroke-width="1" transform="matrix(5.90488,0,0,5.90488,823.683,1598.19)" font-family="Noto Sans"/>
  <g font-size="42" font-style="normal" stroke-linejoin="bevel" font-weight="400" stroke-opacity="1" stroke-linecap="square" fill="none" stroke="#000000" stroke-width="1" transform="matrix(0.590488,0,0,0.590488,823.683,1598.19)" font-family="Noto Sans">
   <text font-size="42" fill-opacity="1" x="20" font-style="normal" y="100" font-weight="400" fill="#000000" stroke="none" xml:space="preserve" font-family="Noto Sans">Moslims in Europa (2010)</text>
  </g>
  <g font-size="18.75" font-style="normal" stroke-linejoin="bevel" font-weight="400" stroke-opacity="1" stroke-linecap="square" fill="none" stroke="#000000" stroke-width="1" transform="matrix(5.90488,0,0,5.90488,823.683,1598.19)" font-family="Noto Sans"/>
  <g font-size="18.75" fill-opacity="1" font-style="normal" stroke-linejoin="bevel" font-weight="400" stroke-opacity="1" stroke-linecap="square" fill="#ffffd4" stroke="#232323" stroke-width="1" transform="matrix(0.999892,0,0,0.999892,835.493,1672)" font-family="Noto Sans">
   <path fill-rule="evenodd" vector-effect="none" d="M0,0 L41,0 L41,23 L0,23 L0,0"/>
  </g>
  <g font-size="18.75" font-style="normal" stroke-linejoin="bevel" font-weight="400" stroke-opacity="1" stroke-linecap="square" fill="none" stroke="#000000" stroke-width="1" transform="matrix(5.90488,0,0,5.90488,823.683,1598.19)" font-family="Noto Sans"/>
  <g font-size="42" font-style="normal" stroke-linejoin="bevel" font-weight="400" stroke-opacity="1" stroke-linecap="square" fill="none" stroke="#000000" stroke-width="1" transform="matrix(0.590488,0,0,0.590488,823.683,1598.19)" font-family="Noto Sans">
   <text font-size="42" fill-opacity="1" x="110" font-style="normal" y="160" font-weight="400" fill="#000000" stroke="none" xml:space="preserve" font-family="Noto Sans">0 - 20 %</text>
  </g>
  <g font-size="18.75" font-style="normal" stroke-linejoin="bevel" font-weight="400" stroke-opacity="1" stroke-linecap="square" fill="none" stroke="#000000" stroke-width="1" transform="matrix(5.90488,0,0,5.90488,823.683,1598.19)" font-family="Noto Sans"/>
  <g font-size="18.75" fill-opacity="1" font-style="normal" stroke-linejoin="bevel" font-weight="400" stroke-opacity="1" stroke-linecap="square" fill="#fed98e" stroke="#232323" stroke-width="1" transform="matrix(0.999892,0,0,0.999892,835.493,1710.38)" font-family="Noto Sans">
   <path fill-rule="evenodd" vector-effect="none" d="M0,0 L41,0 L41,23 L0,23 L0,0"/>
  </g>
  <g font-size="18.75" font-style="normal" stroke-linejoin="bevel" font-weight="400" stroke-opacity="1" stroke-linecap="square" fill="none" stroke="#000000" stroke-width="1" transform="matrix(5.90488,0,0,5.90488,823.683,1598.19)" font-family="Noto Sans"/>
  <g font-size="42" font-style="normal" stroke-linejoin="bevel" font-weight="400" stroke-opacity="1" stroke-linecap="square" fill="none" stroke="#000000" stroke-width="1" transform="matrix(0.590488,0,0,0.590488,823.683,1598.19)" font-family="Noto Sans">
   <text font-size="42" fill-opacity="1" x="110" font-style="normal" y="225" font-weight="400" fill="#000000" stroke="none" xml:space="preserve" font-family="Noto Sans">20 - 40 %</text>
  </g>
  <g font-size="18.75" font-style="normal" stroke-linejoin="bevel" font-weight="400" stroke-opacity="1" stroke-linecap="square" fill="none" stroke="#000000" stroke-width="1" transform="matrix(5.90488,0,0,5.90488,823.683,1598.19)" font-family="Noto Sans"/>
  <g font-size="18.75" fill-opacity="1" font-style="normal" stroke-linejoin="bevel" font-weight="400" stroke-opacity="1" stroke-linecap="square" fill="#fe9929" stroke="#232323" stroke-width="1" transform="matrix(0.999892,0,0,0.999892,835.493,1748.76)" font-family="Noto Sans">
   <path fill-rule="evenodd" vector-effect="none" d="M0,0 L41,0 L41,23 L0,23 L0,0"/>
  </g>
  <g font-size="18.75" font-style="normal" stroke-linejoin="bevel" font-weight="400" stroke-opacity="1" stroke-linecap="square" fill="none" stroke="#000000" stroke-width="1" transform="matrix(5.90488,0,0,5.90488,823.683,1598.19)" font-family="Noto Sans"/>
  <g font-size="42" font-style="normal" stroke-linejoin="bevel" font-weight="400" stroke-opacity="1" stroke-linecap="square" fill="none" stroke="#000000" stroke-width="1" transform="matrix(0.590488,0,0,0.590488,823.683,1598.19)" font-family="Noto Sans">
   <text font-size="42" fill-opacity="1" x="110" font-style="normal" y="290" font-weight="400" fill="#000000" stroke="none" xml:space="preserve" font-family="Noto Sans">40 - 60 %</text>
  </g>
  <g font-size="18.75" font-style="normal" stroke-linejoin="bevel" font-weight="400" stroke-opacity="1" stroke-linecap="square" fill="none" stroke="#000000" stroke-width="1" transform="matrix(5.90488,0,0,5.90488,823.683,1598.19)" font-family="Noto Sans"/>
  <g font-size="18.75" fill-opacity="1" font-style="normal" stroke-linejoin="bevel" font-weight="400" stroke-opacity="1" stroke-linecap="square" fill="#d95f0e" stroke="#232323" stroke-width="1" transform="matrix(0.999892,0,0,0.999892,835.493,1787.15)" font-family="Noto Sans">
   <path fill-rule="evenodd" vector-effect="none" d="M0,0 L41,0 L41,23 L0,23 L0,0"/>
  </g>
  <g font-size="18.75" font-style="normal" stroke-linejoin="bevel" font-weight="400" stroke-opacity="1" stroke-linecap="square" fill="none" stroke="#000000" stroke-width="1" transform="matrix(5.90488,0,0,5.90488,823.683,1598.19)" font-family="Noto Sans"/>
  <g font-size="42" font-style="normal" stroke-linejoin="bevel" font-weight="400" stroke-opacity="1" stroke-linecap="square" fill="none" stroke="#000000" stroke-width="1" transform="matrix(0.590488,0,0,0.590488,823.683,1598.19)" font-family="Noto Sans">
   <text font-size="42" fill-opacity="1" x="110" font-style="normal" y="355" font-weight="400" fill="#000000" stroke="none" xml:space="preserve" font-family="Noto Sans">60 - 80 %</text>
  </g>
  <g font-size="18.75" font-style="normal" stroke-linejoin="bevel" font-weight="400" stroke-opacity="1" stroke-linecap="square" fill="none" stroke="#000000" stroke-width="1" transform="matrix(5.90488,0,0,5.90488,823.683,1598.19)" font-family="Noto Sans"/>
  <g font-size="18.75" fill-opacity="1" font-style="normal" stroke-linejoin="bevel" font-weight="400" stroke-opacity="1" stroke-linecap="square" fill="#993404" stroke="#232323" stroke-width="1" transform="matrix(0.999892,0,0,0.999892,835.493,1825.53)" font-family="Noto Sans">
   <path fill-rule="evenodd" vector-effect="none" d="M0,0 L41,0 L41,23 L0,23 L0,0"/>
  </g>
  <g font-size="18.75" font-style="normal" stroke-linejoin="bevel" font-weight="400" stroke-opacity="1" stroke-linecap="square" fill="none" stroke="#000000" stroke-width="1" transform="matrix(5.90488,0,0,5.90488,823.683,1598.19)" font-family="Noto Sans"/>
  <g font-size="42" font-style="normal" stroke-linejoin="bevel" font-weight="400" stroke-opacity="1" stroke-linecap="square" fill="none" stroke="#000000" stroke-width="1" transform="matrix(0.590488,0,0,0.590488,823.683,1598.19)" font-family="Noto Sans">
   <text font-size="42" fill-opacity="1" x="110" font-style="normal" y="420" font-weight="400" fill="#000000" stroke="none" xml:space="preserve" font-family="Noto Sans">80 - 100 %</text>
  </g>
  <g font-size="18.75" font-style="normal" stroke-linejoin="bevel" font-weight="400" stroke-opacity="1" stroke-linecap="square" fill="none" stroke="#000000" stroke-width="1" transform="matrix(5.90488,0,0,5.90488,823.683,1598.19)" font-family="Noto Sans"/>
  <g font-size="18.75" font-style="normal" stroke-linejoin="bevel" font-weight="400" stroke-opacity="1" stroke-linecap="square" fill="none" stroke="#000000" stroke-width="1" transform="matrix(0.999892,0,0,0.999892,823.683,1598.19)" font-family="Noto Sans"/>
  <g font-size="18.75" font-style="normal" stroke-linejoin="bevel" font-weight="400" stroke-opacity="1" stroke-linecap="square" fill="none" stroke="#000000" stroke-width="1" transform="matrix(5.90488,0,0,5.90488,823.683,1598.19)" font-family="Noto Sans"/>
  <g font-size="18.75" font-style="normal" stroke-linejoin="bevel" font-weight="400" stroke-opacity="1" stroke-linecap="square" fill="none" stroke="#000000" stroke-width="1" transform="matrix(5.90488,0,0,5.90488,823.683,1598.19)" font-family="Noto Sans"/>
  <g font-size="18.75" font-style="normal" stroke-linejoin="bevel" font-weight="400" stroke-opacity="1" stroke-linecap="square" fill="none" stroke="#000000" stroke-width="1" transform="matrix(1,0,0,1,0,0)" font-family="Noto Sans"/>
 </g>
 <metadata id="qgismetadata">
  <rdf:RDF>
   <cc:Work>
    <dc:format>image/svg+xml</dc:format>
    <dc:title></dc:title>
    <dc:date>2018-11-12T16:15:20</dc:date>
    <dc:identifier></dc:identifier>
    <dc:description></dc:description>
    <dc:creator>
     <cc:Agent>
      <dc:title>niene</dc:title>
     </cc:Agent>
    </dc:creator>
    <dc:publisher>
     <cc:Agent>
      <dc:title>QGIS 3.2.3-Bonn</dc:title>
     </cc:Agent>
    </dc:publisher>
    <dc:subject>
     <rdf:Bag/>
    </dc:subject>
   </cc:Work>
  </rdf:RDF>
 </metadata>
</svg>
