<?xml version='1.0' encoding='UTF-8' standalone='no'?>
<svg xmlns="http://www.w3.org/2000/svg" viewBox="0 0 7021 4966" baseProfile="tiny" xmlns:inkscape="http://www.inkscape.org/namespaces/inkscape" xmlns:xlink="http://www.w3.org/1999/xlink" version="1.2" width="1188.89mm" height="840.909mm">
 <defs/>
 <g fill-rule="evenodd" stroke-linejoin="bevel" stroke-linecap="square" fill="none" id="Layer 1" inkscape:groupmode="layer" stroke="black" stroke-width="1" inkscape:label="Layer 1">
  <g font-size="18.75" font-style="normal" stroke-linejoin="bevel" font-weight="400" stroke-opacity="1" stroke-linecap="square" fill="none" stroke="#000000" stroke-width="1" transform="matrix(1,0,0,1,0,0)" font-family="Noto Sans"/>
  <g font-size="18.75" font-style="normal" stroke-linejoin="bevel" font-weight="400" stroke-opacity="1" stroke-linecap="square" fill="none" stroke="#000000" stroke-width="1" transform="matrix(1,0,0,1,0,0)" font-family="Noto Sans"/>
  <g font-size="18.75" font-style="normal" stroke-linejoin="bevel" font-weight="400" stroke-opacity="1" stroke-linecap="square" fill="none" stroke="#000000" stroke-width="1" transform="matrix(5.90488,0,0,5.90488,0,0)" font-family="Noto Sans"/>
  <g font-size="18.75" font-style="normal" stroke-linejoin="bevel" font-weight="400" stroke-opacity="1" stroke-linecap="square" fill="none" stroke="#000000" stroke-width="1" transform="matrix(0.999892,0,0,0.999892,0,0)" font-family="Noto Sans"/>
  <g font-size="18.75" fill-opacity="1" font-style="normal" font-weight="400" fill="#ffffff" stroke="none" transform="matrix(0.999892,0,0,0.999892,0,0)" font-family="Noto Sans">
   <path fill-rule="evenodd" vector-effect="none" d="M-2,-2 L7024,-2 L7024,4969 L-2,4969 L-2,-2"/>
  </g>
  <g font-size="18.75" font-style="normal" stroke-linejoin="bevel" font-weight="400" stroke-opacity="1" stroke-linecap="square" fill="none" stroke="#000000" stroke-width="1" transform="matrix(0.999892,0,0,0.999892,0,0)" font-family="Noto Sans"/>
  <g font-size="18.75" font-style="normal" stroke-linejoin="bevel" font-weight="400" stroke-opacity="1" stroke-linecap="square" fill="none" stroke="#000000" stroke-width="1" transform="matrix(5.90488,0,0,5.90488,0,0)" font-family="Noto Sans"/>
  <g font-size="18.75" font-style="normal" stroke-linejoin="bevel" font-weight="400" stroke-opacity="1" stroke-linecap="square" fill="none" stroke="#000000" stroke-width="1" transform="matrix(5.90488,0,0,5.90488,0,0)" font-family="Noto Sans"/>
  <g font-size="18.75" font-style="normal" stroke-linejoin="bevel" font-weight="400" stroke-opacity="1" stroke-linecap="square" fill="none" stroke="#000000" stroke-width="1" transform="matrix(5.90488,0,0,5.90488,553.601,4790.31)" font-family="Noto Sans"/>
  <g font-size="18.75" font-style="normal" stroke-linejoin="bevel" font-weight="400" stroke-opacity="1" stroke-linecap="square" fill="none" stroke="#000000" stroke-width="1" transform="matrix(0.999892,0,0,0.999892,553.601,4790.31)" font-family="Noto Sans"/>
  <g font-size="18.75" fill-opacity="1" font-style="normal" stroke-linejoin="miter" font-weight="400" stroke-opacity="1" stroke-linecap="square" stroke-miterlimit="2" fill="#40666f" stroke="#406770" stroke-width="1.77165" transform="matrix(0.999892,0,0,0.999892,553.601,4790.31)" font-family="Noto Sans">
   <rect x="14.8178" y="50.622" width="113.126" height="29.5276"/>
  </g>
  <g font-size="18.75" fill-opacity="1" font-style="normal" stroke-linejoin="miter" font-weight="400" stroke-opacity="1" stroke-linecap="square" stroke-miterlimit="2" fill="#ffffff" stroke="#406770" stroke-width="1.77165" transform="matrix(0.999892,0,0,0.999892,553.601,4790.31)" font-family="Noto Sans">
   <rect x="127.943" y="50.622" width="113.126" height="29.5276"/>
  </g>
  <g font-size="18.75" fill-opacity="1" font-style="normal" stroke-linejoin="miter" font-weight="400" stroke-opacity="1" stroke-linecap="square" stroke-miterlimit="2" fill="#40666f" stroke="#406770" stroke-width="1.77165" transform="matrix(0.999892,0,0,0.999892,553.601,4790.31)" font-family="Noto Sans">
   <rect x="241.069" y="50.622" width="113.126" height="29.5276"/>
  </g>
  <g font-size="18.75" fill-opacity="1" font-style="normal" stroke-linejoin="miter" font-weight="400" stroke-opacity="1" stroke-linecap="square" stroke-miterlimit="2" fill="#ffffff" stroke="#406770" stroke-width="1.77165" transform="matrix(0.999892,0,0,0.999892,553.601,4790.31)" font-family="Noto Sans">
   <rect x="354.194" y="50.622" width="113.126" height="29.5276"/>
  </g>
  <g font-size="18.75" fill-opacity="1" font-style="normal" stroke-linejoin="miter" font-weight="400" stroke-opacity="1" stroke-linecap="square" stroke-miterlimit="2" fill="#40666f" stroke="#406770" stroke-width="1.77165" transform="matrix(0.999892,0,0,0.999892,553.601,4790.31)" font-family="Noto Sans">
   <rect x="467.32" y="50.622" width="113.126" height="29.5276"/>
  </g>
  <g font-size="18.75" font-style="normal" stroke-linejoin="bevel" font-weight="400" stroke-opacity="1" stroke-linecap="square" fill="none" stroke="#000000" stroke-width="1" transform="matrix(0.999892,0,0,0.999892,553.601,4790.31)" font-family="Noto Sans"/>
  <g font-size="18.75" font-style="normal" stroke-linejoin="bevel" font-weight="400" stroke-opacity="1" stroke-linecap="square" fill="none" stroke="#000000" stroke-width="1" transform="matrix(0.799914,0,0,0.799914,561.277,4823.21)" font-family="Noto Sans"/>
  <g font-size="18.75" fill-opacity="1" font-style="normal" font-weight="400" fill="#406770" stroke="none" transform="matrix(0.999892,0,0,0.999892,561.277,4823.21)" font-family="Noto Sans">
   <path fill-rule="nonzero" vector-effect="none" d="M13.0781,-8.95312 C13.0781,-5.84896 12.5885,-3.53906 11.6094,-2.02344 C10.6302,-0.507812 9.14062,0.25 7.14062,0.25 C5.20312,0.25 3.73438,-0.53125 2.73438,-2.09375 C1.73438,-3.65625 1.23438,-5.94271 1.23438,-8.95312 C1.23438,-12.0573 1.71615,-14.362 2.67969,-15.8672 C3.64323,-17.3724 5.13021,-18.125 7.14062,-18.125 C9.07812,-18.125 10.5521,-17.3438 11.5625,-15.7812 C12.5729,-14.2188 13.0781,-11.9427 13.0781,-8.95312 M3.4375,-8.95312 C3.4375,-6.35938 3.73177,-4.48958 4.32031,-3.34375 C4.90885,-2.19792 5.84896,-1.625 7.14062,-1.625 C8.44271,-1.625 9.38802,-2.21354 9.97656,-3.39062 C10.5651,-4.56771 10.8594,-6.42188 10.8594,-8.95312 C10.8594,-11.4531 10.5651,-13.2943 9.97656,-14.4766 C9.38802,-15.6589 8.44271,-16.25 7.14062,-16.25 C5.83854,-16.25 4.89583,-15.6719 4.3125,-14.5156 C3.72917,-13.3594 3.4375,-11.5052 3.4375,-8.95312 "/>
  </g>
  <g font-size="18.75" font-style="normal" stroke-linejoin="bevel" font-weight="400" stroke-opacity="1" stroke-linecap="square" fill="none" stroke="#000000" stroke-width="1" transform="matrix(0.799914,0,0,0.799914,561.277,4823.21)" font-family="Noto Sans"/>
  <g font-size="18.75" font-style="normal" stroke-linejoin="bevel" font-weight="400" stroke-opacity="1" stroke-linecap="square" fill="none" stroke="#000000" stroke-width="1" transform="matrix(0.999892,0,0,0.999892,553.601,4790.31)" font-family="Noto Sans"/>
  <g font-size="18.75" font-style="normal" stroke-linejoin="bevel" font-weight="400" stroke-opacity="1" stroke-linecap="square" fill="none" stroke="#000000" stroke-width="1" transform="matrix(0.799914,0,0,0.799914,660.111,4823.21)" font-family="Noto Sans"/>
  <g font-size="18.75" fill-opacity="1" font-style="normal" font-weight="400" fill="#406770" stroke="none" transform="matrix(0.999892,0,0,0.999892,660.111,4823.21)" font-family="Noto Sans">
   <path fill-rule="nonzero" vector-effect="none" d="M8.89062,0 L6.73438,0 L6.73438,-12.4688 C6.73438,-13.5833 6.76562,-14.6094 6.82812,-15.5469 C6.59896,-15.3073 6.35417,-15.0833 6.09375,-14.875 C5.27083,-14.1771 4.36458,-13.4271 3.375,-12.625 L2.23438,-14.0938 L7.0625,-17.8438 L8.89062,-17.8438 L8.89062,0 M27.3594,-8.95312 C27.3594,-5.84896 26.8698,-3.53906 25.8906,-2.02344 C24.9115,-0.507812 23.4219,0.25 21.4219,0.25 C19.4844,0.25 18.0156,-0.53125 17.0156,-2.09375 C16.0156,-3.65625 15.5156,-5.94271 15.5156,-8.95312 C15.5156,-12.0573 15.9974,-14.362 16.9609,-15.8672 C17.9245,-17.3724 19.4115,-18.125 21.4219,-18.125 C23.3594,-18.125 24.8333,-17.3438 25.8438,-15.7812 C26.8542,-14.2188 27.3594,-11.9427 27.3594,-8.95312 M17.7188,-8.95312 C17.7188,-6.35938 18.013,-4.48958 18.6016,-3.34375 C19.1901,-2.19792 20.1302,-1.625 21.4219,-1.625 C22.724,-1.625 23.6693,-2.21354 24.2578,-3.39062 C24.8464,-4.56771 25.1406,-6.42188 25.1406,-8.95312 C25.1406,-11.4531 24.8464,-13.2943 24.2578,-14.4766 C23.6693,-15.6589 22.724,-16.25 21.4219,-16.25 C20.1198,-16.25 19.1771,-15.6719 18.5938,-14.5156 C18.0104,-13.3594 17.7188,-11.5052 17.7188,-8.95312 M41.6406,-8.95312 C41.6406,-5.84896 41.151,-3.53906 40.1719,-2.02344 C39.1927,-0.507812 37.7031,0.25 35.7031,0.25 C33.7656,0.25 32.2969,-0.53125 31.2969,-2.09375 C30.2969,-3.65625 29.7969,-5.94271 29.7969,-8.95312 C29.7969,-12.0573 30.2786,-14.362 31.2422,-15.8672 C32.2057,-17.3724 33.6927,-18.125 35.7031,-18.125 C37.6406,-18.125 39.1146,-17.3438 40.125,-15.7812 C41.1354,-14.2188 41.6406,-11.9427 41.6406,-8.95312 M32,-8.95312 C32,-6.35938 32.2943,-4.48958 32.8828,-3.34375 C33.4714,-2.19792 34.4115,-1.625 35.7031,-1.625 C37.0052,-1.625 37.9505,-2.21354 38.5391,-3.39062 C39.1276,-4.56771 39.4219,-6.42188 39.4219,-8.95312 C39.4219,-11.4531 39.1276,-13.2943 38.5391,-14.4766 C37.9505,-15.6589 37.0052,-16.25 35.7031,-16.25 C34.401,-16.25 33.4583,-15.6719 32.875,-14.5156 C32.2917,-13.3594 32,-11.5052 32,-8.95312 "/>
  </g>
  <g font-size="18.75" font-style="normal" stroke-linejoin="bevel" font-weight="400" stroke-opacity="1" stroke-linecap="square" fill="none" stroke="#000000" stroke-width="1" transform="matrix(0.799914,0,0,0.799914,660.111,4823.21)" font-family="Noto Sans"/>
  <g font-size="18.75" font-style="normal" stroke-linejoin="bevel" font-weight="400" stroke-opacity="1" stroke-linecap="square" fill="none" stroke="#000000" stroke-width="1" transform="matrix(0.999892,0,0,0.999892,553.601,4790.31)" font-family="Noto Sans"/>
  <g font-size="18.75" font-style="normal" stroke-linejoin="bevel" font-weight="400" stroke-opacity="1" stroke-linecap="square" fill="none" stroke="#000000" stroke-width="1" transform="matrix(0.799914,0,0,0.799914,773.224,4823.21)" font-family="Noto Sans"/>
  <g font-size="18.75" fill-opacity="1" font-style="normal" font-weight="400" fill="#406770" stroke="none" transform="matrix(0.999892,0,0,0.999892,773.224,4823.21)" font-family="Noto Sans">
   <path fill-rule="nonzero" vector-effect="none" d="M13.0156,0 L1.20312,0 L1.20312,-1.82812 L5.875,-6.5625 C7.29167,-7.97917 8.22656,-8.99219 8.67969,-9.60156 C9.13281,-10.2109 9.47135,-10.8021 9.69531,-11.375 C9.91927,-11.9479 10.0312,-12.5625 10.0312,-13.2188 C10.0312,-14.1667 9.75,-14.9036 9.1875,-15.4297 C8.625,-15.9557 7.85417,-16.2188 6.875,-16.2188 C6.14583,-16.2188 5.45312,-16.0964 4.79688,-15.8516 C4.14062,-15.6068 3.40104,-15.1667 2.57812,-14.5312 L1.40625,-16 C3.08333,-17.4062 4.90625,-18.1094 6.875,-18.1094 C8.54167,-18.1094 9.86198,-17.6823 10.8359,-16.8281 C11.8099,-15.974 12.2969,-14.8177 12.2969,-13.3594 C12.2969,-12.5781 12.1536,-11.8229 11.8672,-11.0938 C11.5807,-10.3646 11.151,-9.6224 10.5781,-8.86719 C10.0052,-8.11198 9.05208,-7.08333 7.71875,-5.78125 L3.98438,-2.09375 L3.98438,-2 L13.0156,-2 L13.0156,0 M27.3594,-8.95312 C27.3594,-5.84896 26.8698,-3.53906 25.8906,-2.02344 C24.9115,-0.507812 23.4219,0.25 21.4219,0.25 C19.4844,0.25 18.0156,-0.53125 17.0156,-2.09375 C16.0156,-3.65625 15.5156,-5.94271 15.5156,-8.95312 C15.5156,-12.0573 15.9974,-14.362 16.9609,-15.8672 C17.9245,-17.3724 19.4115,-18.125 21.4219,-18.125 C23.3594,-18.125 24.8333,-17.3438 25.8438,-15.7812 C26.8542,-14.2188 27.3594,-11.9427 27.3594,-8.95312 M17.7188,-8.95312 C17.7188,-6.35938 18.013,-4.48958 18.6016,-3.34375 C19.1901,-2.19792 20.1302,-1.625 21.4219,-1.625 C22.724,-1.625 23.6693,-2.21354 24.2578,-3.39062 C24.8464,-4.56771 25.1406,-6.42188 25.1406,-8.95312 C25.1406,-11.4531 24.8464,-13.2943 24.2578,-14.4766 C23.6693,-15.6589 22.724,-16.25 21.4219,-16.25 C20.1198,-16.25 19.1771,-15.6719 18.5938,-14.5156 C18.0104,-13.3594 17.7188,-11.5052 17.7188,-8.95312 M41.6406,-8.95312 C41.6406,-5.84896 41.151,-3.53906 40.1719,-2.02344 C39.1927,-0.507812 37.7031,0.25 35.7031,0.25 C33.7656,0.25 32.2969,-0.53125 31.2969,-2.09375 C30.2969,-3.65625 29.7969,-5.94271 29.7969,-8.95312 C29.7969,-12.0573 30.2786,-14.362 31.2422,-15.8672 C32.2057,-17.3724 33.6927,-18.125 35.7031,-18.125 C37.6406,-18.125 39.1146,-17.3438 40.125,-15.7812 C41.1354,-14.2188 41.6406,-11.9427 41.6406,-8.95312 M32,-8.95312 C32,-6.35938 32.2943,-4.48958 32.8828,-3.34375 C33.4714,-2.19792 34.4115,-1.625 35.7031,-1.625 C37.0052,-1.625 37.9505,-2.21354 38.5391,-3.39062 C39.1276,-4.56771 39.4219,-6.42188 39.4219,-8.95312 C39.4219,-11.4531 39.1276,-13.2943 38.5391,-14.4766 C37.9505,-15.6589 37.0052,-16.25 35.7031,-16.25 C34.401,-16.25 33.4583,-15.6719 32.875,-14.5156 C32.2917,-13.3594 32,-11.5052 32,-8.95312 "/>
  </g>
  <g font-size="18.75" font-style="normal" stroke-linejoin="bevel" font-weight="400" stroke-opacity="1" stroke-linecap="square" fill="none" stroke="#000000" stroke-width="1" transform="matrix(0.799914,0,0,0.799914,773.224,4823.21)" font-family="Noto Sans"/>
  <g font-size="18.75" font-style="normal" stroke-linejoin="bevel" font-weight="400" stroke-opacity="1" stroke-linecap="square" fill="none" stroke="#000000" stroke-width="1" transform="matrix(0.999892,0,0,0.999892,553.601,4790.31)" font-family="Noto Sans"/>
  <g font-size="18.75" font-style="normal" stroke-linejoin="bevel" font-weight="400" stroke-opacity="1" stroke-linecap="square" fill="none" stroke="#000000" stroke-width="1" transform="matrix(0.799914,0,0,0.799914,886.338,4823.21)" font-family="Noto Sans"/>
  <g font-size="18.75" fill-opacity="1" font-style="normal" font-weight="400" fill="#406770" stroke="none" transform="matrix(0.999892,0,0,0.999892,886.338,4823.21)" font-family="Noto Sans">
   <path fill-rule="nonzero" vector-effect="none" d="M12.3438,-13.6719 C12.3438,-12.5365 12.0234,-11.6016 11.3828,-10.8672 C10.7422,-10.1328 9.82812,-9.64583 8.64062,-9.40625 L8.64062,-9.29688 C10.0677,-9.11979 11.1328,-8.66667 11.8359,-7.9375 C12.5391,-7.20833 12.8906,-6.25521 12.8906,-5.07812 C12.8906,-3.38021 12.2995,-2.06771 11.1172,-1.14062 C9.9349,-0.213542 8.24479,0.25 6.04688,0.25 C5.09896,0.25 4.22917,0.179688 3.4375,0.0390625 C2.64583,-0.101562 1.875,-0.354167 1.125,-0.71875 L1.125,-2.76562 C1.88542,-2.39062 2.69792,-2.10156 3.5625,-1.89844 C4.42708,-1.69531 5.26042,-1.59375 6.0625,-1.59375 C9.07292,-1.59375 10.5781,-2.77083 10.5781,-5.125 C10.5781,-7.22917 8.91667,-8.28125 5.59375,-8.28125 L3.85938,-8.28125 L3.85938,-10.1406 L5.60938,-10.1406 C7.01562,-10.1406 8.11198,-10.4401 8.89844,-11.0391 C9.6849,-11.638 10.0781,-12.4688 10.0781,-13.5312 C10.0781,-14.3854 9.79167,-15.0521 9.21875,-15.5312 C8.64583,-16.0104 7.84896,-16.25 6.82812,-16.25 C6.04688,-16.25 5.32031,-16.1406 4.64844,-15.9219 C3.97656,-15.7031 3.20312,-15.3125 2.32812,-14.75 L1.23438,-16.25 C1.96354,-16.8229 2.80729,-17.276 3.76562,-17.6094 C4.72396,-17.9427 5.73958,-18.1094 6.8125,-18.1094 C8.55208,-18.1094 9.90885,-17.7109 10.8828,-16.9141 C11.8568,-16.1172 12.3438,-15.0365 12.3438,-13.6719 M27.3594,-8.95312 C27.3594,-5.84896 26.8698,-3.53906 25.8906,-2.02344 C24.9115,-0.507812 23.4219,0.25 21.4219,0.25 C19.4844,0.25 18.0156,-0.53125 17.0156,-2.09375 C16.0156,-3.65625 15.5156,-5.94271 15.5156,-8.95312 C15.5156,-12.0573 15.9974,-14.362 16.9609,-15.8672 C17.9245,-17.3724 19.4115,-18.125 21.4219,-18.125 C23.3594,-18.125 24.8333,-17.3438 25.8438,-15.7812 C26.8542,-14.2188 27.3594,-11.9427 27.3594,-8.95312 M17.7188,-8.95312 C17.7188,-6.35938 18.013,-4.48958 18.6016,-3.34375 C19.1901,-2.19792 20.1302,-1.625 21.4219,-1.625 C22.724,-1.625 23.6693,-2.21354 24.2578,-3.39062 C24.8464,-4.56771 25.1406,-6.42188 25.1406,-8.95312 C25.1406,-11.4531 24.8464,-13.2943 24.2578,-14.4766 C23.6693,-15.6589 22.724,-16.25 21.4219,-16.25 C20.1198,-16.25 19.1771,-15.6719 18.5938,-14.5156 C18.0104,-13.3594 17.7188,-11.5052 17.7188,-8.95312 M41.6406,-8.95312 C41.6406,-5.84896 41.151,-3.53906 40.1719,-2.02344 C39.1927,-0.507812 37.7031,0.25 35.7031,0.25 C33.7656,0.25 32.2969,-0.53125 31.2969,-2.09375 C30.2969,-3.65625 29.7969,-5.94271 29.7969,-8.95312 C29.7969,-12.0573 30.2786,-14.362 31.2422,-15.8672 C32.2057,-17.3724 33.6927,-18.125 35.7031,-18.125 C37.6406,-18.125 39.1146,-17.3438 40.125,-15.7812 C41.1354,-14.2188 41.6406,-11.9427 41.6406,-8.95312 M32,-8.95312 C32,-6.35938 32.2943,-4.48958 32.8828,-3.34375 C33.4714,-2.19792 34.4115,-1.625 35.7031,-1.625 C37.0052,-1.625 37.9505,-2.21354 38.5391,-3.39062 C39.1276,-4.56771 39.4219,-6.42188 39.4219,-8.95312 C39.4219,-11.4531 39.1276,-13.2943 38.5391,-14.4766 C37.9505,-15.6589 37.0052,-16.25 35.7031,-16.25 C34.401,-16.25 33.4583,-15.6719 32.875,-14.5156 C32.2917,-13.3594 32,-11.5052 32,-8.95312 "/>
  </g>
  <g font-size="18.75" font-style="normal" stroke-linejoin="bevel" font-weight="400" stroke-opacity="1" stroke-linecap="square" fill="none" stroke="#000000" stroke-width="1" transform="matrix(0.799914,0,0,0.799914,886.338,4823.21)" font-family="Noto Sans"/>
  <g font-size="18.75" font-style="normal" stroke-linejoin="bevel" font-weight="400" stroke-opacity="1" stroke-linecap="square" fill="none" stroke="#000000" stroke-width="1" transform="matrix(0.999892,0,0,0.999892,553.601,4790.31)" font-family="Noto Sans"/>
  <g font-size="18.75" font-style="normal" stroke-linejoin="bevel" font-weight="400" stroke-opacity="1" stroke-linecap="square" fill="none" stroke="#000000" stroke-width="1" transform="matrix(0.799914,0,0,0.799914,999.451,4823.21)" font-family="Noto Sans"/>
  <g font-size="18.75" fill-opacity="1" font-style="normal" font-weight="400" fill="#406770" stroke="none" transform="matrix(0.999892,0,0,0.999892,999.451,4823.21)" font-family="Noto Sans">
   <path fill-rule="nonzero" vector-effect="none" d="M13.7969,-4.04688 L11.2188,-4.04688 L11.2188,0 L9.07812,0 L9.07812,-4.04688 L0.53125,-4.04688 L0.53125,-5.92188 L8.9375,-17.9375 L11.2188,-17.9375 L11.2188,-6.03125 L13.7969,-6.03125 L13.7969,-4.04688 M9.07812,-6.03125 L9.07812,-11.6406 C9.07812,-12.7552 9.125,-14.0729 9.21875,-15.5938 L9.10938,-15.5938 C9.01562,-15.3854 8.85677,-15.0703 8.63281,-14.6484 C8.40885,-14.2266 8.20833,-13.8906 8.03125,-13.6406 L2.6875,-6.03125 L9.07812,-6.03125 M27.3594,-8.95312 C27.3594,-5.84896 26.8698,-3.53906 25.8906,-2.02344 C24.9115,-0.507812 23.4219,0.25 21.4219,0.25 C19.4844,0.25 18.0156,-0.53125 17.0156,-2.09375 C16.0156,-3.65625 15.5156,-5.94271 15.5156,-8.95312 C15.5156,-12.0573 15.9974,-14.362 16.9609,-15.8672 C17.9245,-17.3724 19.4115,-18.125 21.4219,-18.125 C23.3594,-18.125 24.8333,-17.3438 25.8438,-15.7812 C26.8542,-14.2188 27.3594,-11.9427 27.3594,-8.95312 M17.7188,-8.95312 C17.7188,-6.35938 18.013,-4.48958 18.6016,-3.34375 C19.1901,-2.19792 20.1302,-1.625 21.4219,-1.625 C22.724,-1.625 23.6693,-2.21354 24.2578,-3.39062 C24.8464,-4.56771 25.1406,-6.42188 25.1406,-8.95312 C25.1406,-11.4531 24.8464,-13.2943 24.2578,-14.4766 C23.6693,-15.6589 22.724,-16.25 21.4219,-16.25 C20.1198,-16.25 19.1771,-15.6719 18.5938,-14.5156 C18.0104,-13.3594 17.7188,-11.5052 17.7188,-8.95312 M41.6406,-8.95312 C41.6406,-5.84896 41.151,-3.53906 40.1719,-2.02344 C39.1927,-0.507812 37.7031,0.25 35.7031,0.25 C33.7656,0.25 32.2969,-0.53125 31.2969,-2.09375 C30.2969,-3.65625 29.7969,-5.94271 29.7969,-8.95312 C29.7969,-12.0573 30.2786,-14.362 31.2422,-15.8672 C32.2057,-17.3724 33.6927,-18.125 35.7031,-18.125 C37.6406,-18.125 39.1146,-17.3438 40.125,-15.7812 C41.1354,-14.2188 41.6406,-11.9427 41.6406,-8.95312 M32,-8.95312 C32,-6.35938 32.2943,-4.48958 32.8828,-3.34375 C33.4714,-2.19792 34.4115,-1.625 35.7031,-1.625 C37.0052,-1.625 37.9505,-2.21354 38.5391,-3.39062 C39.1276,-4.56771 39.4219,-6.42188 39.4219,-8.95312 C39.4219,-11.4531 39.1276,-13.2943 38.5391,-14.4766 C37.9505,-15.6589 37.0052,-16.25 35.7031,-16.25 C34.401,-16.25 33.4583,-15.6719 32.875,-14.5156 C32.2917,-13.3594 32,-11.5052 32,-8.95312 "/>
  </g>
  <g font-size="18.75" font-style="normal" stroke-linejoin="bevel" font-weight="400" stroke-opacity="1" stroke-linecap="square" fill="none" stroke="#000000" stroke-width="1" transform="matrix(0.799914,0,0,0.799914,999.451,4823.21)" font-family="Noto Sans"/>
  <g font-size="18.75" font-style="normal" stroke-linejoin="bevel" font-weight="400" stroke-opacity="1" stroke-linecap="square" fill="none" stroke="#000000" stroke-width="1" transform="matrix(0.999892,0,0,0.999892,553.601,4790.31)" font-family="Noto Sans"/>
  <g font-size="18.75" font-style="normal" stroke-linejoin="bevel" font-weight="400" stroke-opacity="1" stroke-linecap="square" fill="none" stroke="#000000" stroke-width="1" transform="matrix(0.799914,0,0,0.799914,1112.56,4823.21)" font-family="Noto Sans"/>
  <g font-size="18.75" fill-opacity="1" font-style="normal" font-weight="400" fill="#406770" stroke="none" transform="matrix(0.999892,0,0,0.999892,1112.56,4823.21)" font-family="Noto Sans">
   <path fill-rule="nonzero" vector-effect="none" d="M6.875,-10.9531 C8.73958,-10.9531 10.2083,-10.4844 11.2812,-9.54688 C12.3542,-8.60938 12.8906,-7.32812 12.8906,-5.70312 C12.8906,-3.84896 12.2995,-2.39323 11.1172,-1.33594 C9.9349,-0.278646 8.29688,0.25 6.20312,0.25 C4.21354,0.25 2.67188,-0.0729167 1.57812,-0.71875 L1.57812,-2.79688 C2.18229,-2.44271 2.90885,-2.15885 3.75781,-1.94531 C4.60677,-1.73177 5.43229,-1.625 6.23438,-1.625 C7.63021,-1.625 8.71094,-1.95833 9.47656,-2.625 C10.2422,-3.29167 10.625,-4.24479 10.625,-5.48438 C10.625,-7.89062 9.13542,-9.09375 6.15625,-9.09375 C5.19792,-9.09375 4.18229,-8.97396 3.10938,-8.73438 L2.01562,-9.42188 L2.6875,-17.8438 L11.625,-17.8438 L11.625,-15.8438 L4.5625,-15.8438 L4.14062,-10.6719 C5.07812,-10.8594 5.98958,-10.9531 6.875,-10.9531 M27.3594,-8.95312 C27.3594,-5.84896 26.8698,-3.53906 25.8906,-2.02344 C24.9115,-0.507812 23.4219,0.25 21.4219,0.25 C19.4844,0.25 18.0156,-0.53125 17.0156,-2.09375 C16.0156,-3.65625 15.5156,-5.94271 15.5156,-8.95312 C15.5156,-12.0573 15.9974,-14.362 16.9609,-15.8672 C17.9245,-17.3724 19.4115,-18.125 21.4219,-18.125 C23.3594,-18.125 24.8333,-17.3438 25.8438,-15.7812 C26.8542,-14.2188 27.3594,-11.9427 27.3594,-8.95312 M17.7188,-8.95312 C17.7188,-6.35938 18.013,-4.48958 18.6016,-3.34375 C19.1901,-2.19792 20.1302,-1.625 21.4219,-1.625 C22.724,-1.625 23.6693,-2.21354 24.2578,-3.39062 C24.8464,-4.56771 25.1406,-6.42188 25.1406,-8.95312 C25.1406,-11.4531 24.8464,-13.2943 24.2578,-14.4766 C23.6693,-15.6589 22.724,-16.25 21.4219,-16.25 C20.1198,-16.25 19.1771,-15.6719 18.5938,-14.5156 C18.0104,-13.3594 17.7188,-11.5052 17.7188,-8.95312 M41.6406,-8.95312 C41.6406,-5.84896 41.151,-3.53906 40.1719,-2.02344 C39.1927,-0.507812 37.7031,0.25 35.7031,0.25 C33.7656,0.25 32.2969,-0.53125 31.2969,-2.09375 C30.2969,-3.65625 29.7969,-5.94271 29.7969,-8.95312 C29.7969,-12.0573 30.2786,-14.362 31.2422,-15.8672 C32.2057,-17.3724 33.6927,-18.125 35.7031,-18.125 C37.6406,-18.125 39.1146,-17.3438 40.125,-15.7812 C41.1354,-14.2188 41.6406,-11.9427 41.6406,-8.95312 M32,-8.95312 C32,-6.35938 32.2943,-4.48958 32.8828,-3.34375 C33.4714,-2.19792 34.4115,-1.625 35.7031,-1.625 C37.0052,-1.625 37.9505,-2.21354 38.5391,-3.39062 C39.1276,-4.56771 39.4219,-6.42188 39.4219,-8.95312 C39.4219,-11.4531 39.1276,-13.2943 38.5391,-14.4766 C37.9505,-15.6589 37.0052,-16.25 35.7031,-16.25 C34.401,-16.25 33.4583,-15.6719 32.875,-14.5156 C32.2917,-13.3594 32,-11.5052 32,-8.95312 M53.6406,-6.89062 L54.375,-7.84375 L55.2344,-8.875 L59.5156,-13.4062 L62.0781,-13.4062 L56.6562,-7.67188 L62.4531,0 L59.8125,0 L55.1562,-6.25 L53.6406,-4.92188 L53.6406,0 L51.4688,0 L51.4688,-19 L53.6406,-19 L53.6406,-9.0625 L53.5312,-6.89062 L53.6406,-6.89062 M81.8594,0 L81.8594,-8.625 C81.8594,-10.7396 80.9531,-11.7969 79.1406,-11.7969 C77.8906,-11.7969 76.974,-11.4349 76.3906,-10.7109 C75.8073,-9.98698 75.5156,-8.88021 75.5156,-7.39062 L75.5156,0 L73.3281,0 L73.3281,-8.625 C73.3281,-9.6875 73.1068,-10.4818 72.6641,-11.0078 C72.2214,-11.5339 71.526,-11.7969 70.5781,-11.7969 C69.3385,-11.7969 68.4323,-11.4193 67.8594,-10.6641 C67.2865,-9.90885 67,-8.67188 67,-6.95312 L67,0 L64.8125,0 L64.8125,-13.4062 L66.5781,-13.4062 L66.9062,-11.5781 L67.0312,-11.5781 C67.4062,-12.224 67.9427,-12.7292 68.6406,-13.0938 C69.3385,-13.4583 70.1198,-13.6406 70.9844,-13.6406 C73.0781,-13.6406 74.4427,-12.8958 75.0781,-11.4062 L75.2031,-11.4062 C75.6406,-12.1146 76.2318,-12.6641 76.9766,-13.0547 C77.7214,-13.4453 78.5625,-13.6406 79.5,-13.6406 C81.0104,-13.6406 82.1432,-13.25 82.8984,-12.4688 C83.6536,-11.6875 84.0312,-10.4427 84.0312,-8.73438 L84.0312,0 L81.8594,0"/>
  </g>
  <g font-size="18.75" font-style="normal" stroke-linejoin="bevel" font-weight="400" stroke-opacity="1" stroke-linecap="square" fill="none" stroke="#000000" stroke-width="1" transform="matrix(0.799914,0,0,0.799914,1112.56,4823.21)" font-family="Noto Sans"/>
  <g font-size="18.75" font-style="normal" stroke-linejoin="bevel" font-weight="400" stroke-opacity="1" stroke-linecap="square" fill="none" stroke="#000000" stroke-width="1" transform="matrix(0.999892,0,0,0.999892,553.601,4790.31)" font-family="Noto Sans"/>
  <g font-size="18.75" font-style="normal" stroke-linejoin="bevel" font-weight="400" stroke-opacity="1" stroke-linecap="square" fill="none" stroke="#000000" stroke-width="1" transform="matrix(0.999892,0,0,0.999892,553.601,4790.31)" font-family="Noto Sans"/>
  <g font-size="18.75" font-style="normal" stroke-linejoin="bevel" font-weight="400" stroke-opacity="1" stroke-linecap="square" fill="none" stroke="#000000" stroke-width="1" transform="matrix(5.90488,0,0,5.90488,553.601,4790.31)" font-family="Noto Sans"/>
  <g font-size="18.75" font-style="normal" stroke-linejoin="bevel" font-weight="400" stroke-opacity="1" stroke-linecap="square" fill="none" stroke="#000000" stroke-width="1" transform="matrix(5.90488,0,0,5.90488,553.601,4790.31)" font-family="Noto Sans"/>
  <g font-size="18.75" font-style="normal" stroke-linejoin="bevel" font-weight="400" stroke-opacity="1" stroke-linecap="square" fill="none" stroke="#000000" stroke-width="1" transform="matrix(5.90488,0,0,5.90488,823.683,1598.19)" font-family="Noto Sans"/>
  <g font-size="18.75" font-style="normal" stroke-linejoin="bevel" font-weight="400" stroke-opacity="1" stroke-linecap="square" fill="none" stroke="#000000" stroke-width="1" transform="matrix(5.90488,0,0,5.90488,823.683,1598.19)" font-family="Noto Sans"/>
  <g font-size="18.75" fill-opacity="1" font-style="normal" font-weight="400" fill="#ffffff" stroke="none" transform="matrix(5.90488,0,0,5.90488,823.683,1598.19)" font-family="Noto Sans">
   <rect x="0" y="0" width="53.6328" height="44.5"/>
  </g>
  <g font-size="18.75" font-style="normal" stroke-linejoin="bevel" font-weight="400" stroke-opacity="1" stroke-linecap="square" fill="none" stroke="#000000" stroke-width="1" transform="matrix(5.90488,0,0,5.90488,823.683,1598.19)" font-family="Noto Sans"/>
  <g font-size="18.75" font-style="normal" stroke-linejoin="bevel" font-weight="400" stroke-opacity="1" stroke-linecap="square" fill="none" stroke="#000000" stroke-width="1" transform="matrix(0.999892,0,0,0.999892,823.683,1598.19)" font-family="Noto Sans"/>
  <g font-size="18.75" font-style="normal" stroke-linejoin="bevel" font-weight="400" stroke-opacity="1" stroke-linecap="square" fill="none" stroke="#000000" stroke-width="1" transform="matrix(5.90488,0,0,5.90488,823.683,1598.19)" font-family="Noto Sans"/>
  <g font-size="42" font-style="normal" stroke-linejoin="bevel" font-weight="400" stroke-opacity="1" stroke-linecap="square" fill="none" stroke="#000000" stroke-width="1" transform="matrix(0.590488,0,0,0.590488,823.683,1598.19)" font-family="Noto Sans">
   <text font-size="42" fill-opacity="1" x="20" font-style="normal" y="100" font-weight="400" fill="#000000" stroke="none" xml:space="preserve" font-family="Noto Sans">Moslims in Europa (2010)</text>
  </g>
  <g font-size="18.75" font-style="normal" stroke-linejoin="bevel" font-weight="400" stroke-opacity="1" stroke-linecap="square" fill="none" stroke="#000000" stroke-width="1" transform="matrix(5.90488,0,0,5.90488,823.683,1598.19)" font-family="Noto Sans"/>
  <g font-size="18.75" fill-opacity="1" font-style="normal" stroke-linejoin="bevel" font-weight="400" stroke-opacity="1" stroke-linecap="square" fill="#ffffd4" stroke="#232323" stroke-width="1" transform="matrix(0.999892,0,0,0.999892,835.493,1672)" font-family="Noto Sans">
   <path fill-rule="evenodd" vector-effect="none" d="M0,0 L41,0 L41,23 L0,23 L0,0"/>
  </g>
  <g font-size="18.75" font-style="normal" stroke-linejoin="bevel" font-weight="400" stroke-opacity="1" stroke-linecap="square" fill="none" stroke="#000000" stroke-width="1" transform="matrix(5.90488,0,0,5.90488,823.683,1598.19)" font-family="Noto Sans"/>
  <g font-size="42" font-style="normal" stroke-linejoin="bevel" font-weight="400" stroke-opacity="1" stroke-linecap="square" fill="none" stroke="#000000" stroke-width="1" transform="matrix(0.590488,0,0,0.590488,823.683,1598.19)" font-family="Noto Sans">
   <text font-size="42" fill-opacity="1" x="110" font-style="normal" y="160" font-weight="400" fill="#000000" stroke="none" xml:space="preserve" font-family="Noto Sans">Minder dan 1%</text>
  </g>
  <g font-size="18.75" font-style="normal" stroke-linejoin="bevel" font-weight="400" stroke-opacity="1" stroke-linecap="square" fill="none" stroke="#000000" stroke-width="1" transform="matrix(5.90488,0,0,5.90488,823.683,1598.19)" font-family="Noto Sans"/>
  <g font-size="18.75" fill-opacity="1" font-style="normal" stroke-linejoin="bevel" font-weight="400" stroke-opacity="1" stroke-linecap="square" fill="#fed98e" stroke="#232323" stroke-width="1" transform="matrix(0.999892,0,0,0.999892,835.493,1710.38)" font-family="Noto Sans">
   <path fill-rule="evenodd" vector-effect="none" d="M0,0 L41,0 L41,23 L0,23 L0,0"/>
  </g>
  <g font-size="18.75" font-style="normal" stroke-linejoin="bevel" font-weight="400" stroke-opacity="1" stroke-linecap="square" fill="none" stroke="#000000" stroke-width="1" transform="matrix(5.90488,0,0,5.90488,823.683,1598.19)" font-family="Noto Sans"/>
  <g font-size="42" font-style="normal" stroke-linejoin="bevel" font-weight="400" stroke-opacity="1" stroke-linecap="square" fill="none" stroke="#000000" stroke-width="1" transform="matrix(0.590488,0,0,0.590488,823.683,1598.19)" font-family="Noto Sans">
   <text font-size="42" fill-opacity="1" x="110" font-style="normal" y="225" font-weight="400" fill="#000000" stroke="none" xml:space="preserve" font-family="Noto Sans"> 1 - 2,5 %</text>
  </g>
  <g font-size="18.75" font-style="normal" stroke-linejoin="bevel" font-weight="400" stroke-opacity="1" stroke-linecap="square" fill="none" stroke="#000000" stroke-width="1" transform="matrix(5.90488,0,0,5.90488,823.683,1598.19)" font-family="Noto Sans"/>
  <g font-size="18.75" fill-opacity="1" font-style="normal" stroke-linejoin="bevel" font-weight="400" stroke-opacity="1" stroke-linecap="square" fill="#fe9929" stroke="#232323" stroke-width="1" transform="matrix(0.999892,0,0,0.999892,835.493,1748.76)" font-family="Noto Sans">
   <path fill-rule="evenodd" vector-effect="none" d="M0,0 L41,0 L41,23 L0,23 L0,0"/>
  </g>
  <g font-size="18.75" font-style="normal" stroke-linejoin="bevel" font-weight="400" stroke-opacity="1" stroke-linecap="square" fill="none" stroke="#000000" stroke-width="1" transform="matrix(5.90488,0,0,5.90488,823.683,1598.19)" font-family="Noto Sans"/>
  <g font-size="42" font-style="normal" stroke-linejoin="bevel" font-weight="400" stroke-opacity="1" stroke-linecap="square" fill="none" stroke="#000000" stroke-width="1" transform="matrix(0.590488,0,0,0.590488,823.683,1598.19)" font-family="Noto Sans">
   <text font-size="42" fill-opacity="1" x="110" font-style="normal" y="290" font-weight="400" fill="#000000" stroke="none" xml:space="preserve" font-family="Noto Sans">2,5 - 6 %</text>
  </g>
  <g font-size="18.75" font-style="normal" stroke-linejoin="bevel" font-weight="400" stroke-opacity="1" stroke-linecap="square" fill="none" stroke="#000000" stroke-width="1" transform="matrix(5.90488,0,0,5.90488,823.683,1598.19)" font-family="Noto Sans"/>
  <g font-size="18.75" fill-opacity="1" font-style="normal" stroke-linejoin="bevel" font-weight="400" stroke-opacity="1" stroke-linecap="square" fill="#d95f0e" stroke="#232323" stroke-width="1" transform="matrix(0.999892,0,0,0.999892,835.493,1787.15)" font-family="Noto Sans">
   <path fill-rule="evenodd" vector-effect="none" d="M0,0 L41,0 L41,23 L0,23 L0,0"/>
  </g>
  <g font-size="18.75" font-style="normal" stroke-linejoin="bevel" font-weight="400" stroke-opacity="1" stroke-linecap="square" fill="none" stroke="#000000" stroke-width="1" transform="matrix(5.90488,0,0,5.90488,823.683,1598.19)" font-family="Noto Sans"/>
  <g font-size="42" font-style="normal" stroke-linejoin="bevel" font-weight="400" stroke-opacity="1" stroke-linecap="square" fill="none" stroke="#000000" stroke-width="1" transform="matrix(0.590488,0,0,0.590488,823.683,1598.19)" font-family="Noto Sans">
   <text font-size="42" fill-opacity="1" x="110" font-style="normal" y="355" font-weight="400" fill="#000000" stroke="none" xml:space="preserve" font-family="Noto Sans">6 - 60 %</text>
  </g>
  <g font-size="18.75" font-style="normal" stroke-linejoin="bevel" font-weight="400" stroke-opacity="1" stroke-linecap="square" fill="none" stroke="#000000" stroke-width="1" transform="matrix(5.90488,0,0,5.90488,823.683,1598.19)" font-family="Noto Sans"/>
  <g font-size="18.75" fill-opacity="1" font-style="normal" stroke-linejoin="bevel" font-weight="400" stroke-opacity="1" stroke-linecap="square" fill="#993404" stroke="#232323" stroke-width="1" transform="matrix(0.999892,0,0,0.999892,835.493,1825.53)" font-family="Noto Sans">
   <path fill-rule="evenodd" vector-effect="none" d="M0,0 L41,0 L41,23 L0,23 L0,0"/>
  </g>
  <g font-size="18.75" font-style="normal" stroke-linejoin="bevel" font-weight="400" stroke-opacity="1" stroke-linecap="square" fill="none" stroke="#000000" stroke-width="1" transform="matrix(5.90488,0,0,5.90488,823.683,1598.19)" font-family="Noto Sans"/>
  <g font-size="42" font-style="normal" stroke-linejoin="bevel" font-weight="400" stroke-opacity="1" stroke-linecap="square" fill="none" stroke="#000000" stroke-width="1" transform="matrix(0.590488,0,0,0.590488,823.683,1598.19)" font-family="Noto Sans">
   <text font-size="42" fill-opacity="1" x="110" font-style="normal" y="420" font-weight="400" fill="#000000" stroke="none" xml:space="preserve" font-family="Noto Sans">Meer dan 60%</text>
  </g>
  <g font-size="18.75" font-style="normal" stroke-linejoin="bevel" font-weight="400" stroke-opacity="1" stroke-linecap="square" fill="none" stroke="#000000" stroke-width="1" transform="matrix(5.90488,0,0,5.90488,823.683,1598.19)" font-family="Noto Sans"/>
  <g font-size="18.75" font-style="normal" stroke-linejoin="bevel" font-weight="400" stroke-opacity="1" stroke-linecap="square" fill="none" stroke="#000000" stroke-width="1" transform="matrix(0.999892,0,0,0.999892,823.683,1598.19)" font-family="Noto Sans"/>
  <g font-size="18.75" font-style="normal" stroke-linejoin="bevel" font-weight="400" stroke-opacity="1" stroke-linecap="square" fill="none" stroke="#000000" stroke-width="1" transform="matrix(5.90488,0,0,5.90488,823.683,1598.19)" font-family="Noto Sans"/>
  <g font-size="18.75" font-style="normal" stroke-linejoin="bevel" font-weight="400" stroke-opacity="1" stroke-linecap="square" fill="none" stroke="#000000" stroke-width="1" transform="matrix(5.90488,0,0,5.90488,823.683,1598.19)" font-family="Noto Sans"/>
  <g font-size="18.75" font-style="normal" stroke-linejoin="bevel" font-weight="400" stroke-opacity="1" stroke-linecap="square" fill="none" stroke="#000000" stroke-width="1" transform="matrix(1,0,0,1,0,0)" font-family="Noto Sans"/>
 </g>
 <metadata id="qgismetadata">
  <rdf:RDF>
   <cc:Work>
    <dc:format>image/svg+xml</dc:format>
    <dc:title></dc:title>
    <dc:date>2018-11-12T16:15:20</dc:date>
    <dc:identifier></dc:identifier>
    <dc:description></dc:description>
    <dc:creator>
     <cc:Agent>
      <dc:title>niene</dc:title>
     </cc:Agent>
    </dc:creator>
    <dc:publisher>
     <cc:Agent>
      <dc:title>QGIS 3.2.3-Bonn</dc:title>
     </cc:Agent>
    </dc:publisher>
    <dc:subject>
     <rdf:Bag/>
    </dc:subject>
   </cc:Work>
  </rdf:RDF>
 </metadata>
</svg>
